<?xml version="1.0" encoding="utf-8"?>
<!-- Generator: Adobe Illustrator 22.1.0, SVG Export Plug-In . SVG Version: 6.00 Build 0)  -->
<svg version="1.1" id="Layer_1" xmlns="http://www.w3.org/2000/svg" xmlns:xlink="http://www.w3.org/1999/xlink" x="0px" y="0px"
	 viewBox="0 0 500 200" style="enable-background:new 0 0 500 200;" xml:space="preserve">
<style type="text/css">
	.st0{fill:#F8F9FC;}
</style>
<g>
	<path class="st0" d="M16.2,151.4c-3,1.7-6,3.8-9.2,6.3c-3.1,2.5-5,3.7-5.7,3.7c-0.3,0-0.5-0.1-0.7-0.3s-0.3-0.7-0.3-1.4V93.5
		c0-0.3,0.1-0.5,0.3-0.7s0.5-0.3,0.7-0.3c0.4,0,0.8,0.2,1.2,0.6c0.6,0.6,0.9,1.3,0.9,2.1v4.5c0,8.8,1.7,18.8,5.1,30.1
		c3.4,11.2,7.9,19.3,13.4,24c2.7,2.4,5.9,3.6,9.5,3.6c4.1,0,7.7-1.6,10.8-4.7c3.1-3.1,4.6-7.9,4.6-14.2c0-6-1.4-12.4-4.2-19.2
		c-3.7-9-11.9-23.4-24.5-43.2C10.4,63.8,5.4,54.8,3.2,49.3C1.1,43.8,0,38.4,0,33.2C0,22.9,3.1,14.8,9.2,9s13.1-8.8,20.9-8.8
		c6.7,0,12.7,2.8,18.1,8.5c4.4-1.9,8.7-4.3,12.8-7.1c1.4-1,2.2-1.5,2.7-1.5c0.2,0,0.3,0.1,0.5,0.2c0.2,0.3,0.3,0.8,0.3,1.5v57.3
		c0,0.8-0.2,1.4-0.7,1.9c-0.3,0.3-0.6,0.4-1.1,0.4s-1-0.2-1.2-0.5c-0.3-0.4-0.8-2.9-1.6-7.6C56.1,31.5,51.4,17,45.4,9.9
		C42,5.9,38,3.8,33.5,3.8c-3.3,0-6.2,1.2-8.6,3.6s-3.7,5.9-3.7,10.5c0,8.4,6,22.1,17.9,41.2l11.6,18.7c8,12.9,13.3,23.1,16,30.6
		c2.6,7.6,4,14.3,4,20.3c0,10.4-3.2,18.6-9.6,24.5s-13.9,8.9-22.5,8.9C29.2,162.1,21.8,158.5,16.2,151.4z"/>
	<path class="st0" d="M80.8,50.1h-6.1c-0.9-0.4-1.3-0.9-1.3-1.4c0-0.4,0.4-0.9,1.3-1.4H110c0.4,0,0.8,0.1,1.1,0.4
		c0.3,0.3,0.5,0.6,0.5,0.9c0,0.4-0.2,0.8-0.5,1S110.4,50,110,50h-6l11.9,81l11.4-63.7c0.4-2.3,0.7-4.5,0.7-6.4c0-3.9-0.6-6.5-1.9-8
		s-3.1-2.4-5.6-2.6l-1.8-0.4c-0.3-0.3-0.4-0.6-0.4-1.1s0.1-0.9,0.3-1.1c0.2-0.2,0.5-0.4,1-0.4h19.9c0.5,0,0.9,0.1,1.3,0.4
		c0.3,0.3,0.5,0.6,0.5,1.1c0,0.4-0.1,0.6-0.3,0.8s-0.7,0.4-1.4,0.4c-1.2,0.3-2.3,1-3.2,2.2c-2.5,3.3-4.2,7.5-5.1,12.5l-19.8,110.9
		c-1.4,8-4.4,14-9,18s-9.2,6-14,6c-3.8,0-7.1-1.3-10-4c-2.9-2.6-4.4-6.1-4.4-10.4c0-3.7,1.1-6.5,3.4-8.5c2.2-2,4.9-3,7.8-3
		s5.4,0.9,7.6,2.7s3.2,4.1,3.2,6.7c0,4.1-2.3,7.4-6.9,9.7c-1.2,0.6-1.8,1.3-1.8,1.9c0,0.4,0.2,0.8,0.7,1.1s1.2,0.5,2.2,0.5
		c3.3,0,6.4-1.4,9.5-4.3c4.1-3.9,7-10.2,8.8-18.9l2.9-12.9H97.3L80.8,50.1z"/>
	<path class="st0" d="M149.4,50.1h-6.1c-0.9-0.4-1.3-0.9-1.3-1.4c0-0.4,0.4-0.9,1.3-1.4h35.3c0.4,0,0.8,0.1,1.1,0.4
		c0.3,0.3,0.5,0.6,0.5,0.9c0,0.4-0.2,0.8-0.5,1S179,50,178.6,50h-6.1l11.9,81l11.4-63.7c0.4-2.3,0.7-4.5,0.7-6.4
		c0-3.9-0.6-6.5-1.9-8c-1.3-1.5-3.1-2.4-5.6-2.6l-1.8-0.4c-0.3-0.3-0.4-0.6-0.4-1.1s0.1-0.9,0.3-1.1c0.2-0.2,0.5-0.4,1-0.4H208
		c0.5,0,0.9,0.1,1.3,0.4c0.3,0.3,0.5,0.6,0.5,1.1c0,0.4-0.1,0.6-0.3,0.8s-0.7,0.4-1.4,0.4c-1.2,0.3-2.3,1-3.2,2.2
		c-2.5,3.3-4.2,7.5-5.1,12.5L180,175.8c-1.4,8-4.4,14-9,18s-9.2,6-14,6c-3.8,0-7.1-1.3-10-4c-2.9-2.6-4.4-6.1-4.4-10.4
		c0-3.7,1.1-6.5,3.4-8.5s4.9-3,7.8-3c2.9,0,5.4,0.9,7.6,2.7c2.2,1.8,3.2,4.1,3.2,6.7c0,4.1-2.3,7.4-6.9,9.7
		c-1.2,0.6-1.8,1.3-1.8,1.9c0,0.4,0.2,0.8,0.7,1.1s1.2,0.5,2.2,0.5c3.3,0,6.4-1.4,9.5-4.3c4.1-3.9,7-10.2,8.8-18.9l2.9-12.9h-14.2
		L149.4,50.1z M177.8,5.8H204l-24,34.1c-0.6,0.9-1.4,1.4-2.2,1.4l-1.1-0.3c-0.4-0.4-0.5-0.9-0.5-1.5L177.8,5.8z"/>
	<path class="st0" d="M223.3,58.6c1.2-0.4,2.4-0.6,3.6-0.8c1.1-0.2,2.2-0.3,3.2-0.3c3.5,0,6.5,1,8.9,3.1c2.4,2,3.6,4.7,3.6,8
		c0,3.4-1.2,6.1-3.7,8.1s-5.8,3.1-9.9,3.1c-4.1,0-7.4-1-9.8-3.1c-2.4-2.1-3.6-5.1-3.6-9.2c0-6,2.9-11.1,8.6-15.2
		c5.7-4.1,13.8-6.1,24.4-6.1c9.5,0,16.3,1.4,20.5,4.3c4.2,2.8,6.3,6.5,6.3,10.9v91.1c0,1.1,0.3,1.9,1,2.6c0.7,0.7,1.4,1,2.2,1
		c2.2,0,4.4-1.9,6.7-5.6c0.6-1.1,1.2-1.7,1.8-1.7l1.6,1.2c0,2.5-2,5.1-5.9,7.8c-4,2.7-8.7,4.1-14.2,4.1c-4.7,0-8.4-0.9-11-2.6
		c-2.6-1.8-4.5-4.9-5.9-9.3c-4,4.8-7.6,8-10.6,9.5c-3,1.6-6.6,2.4-10.7,2.4c-5,0-8.9-1-11.5-3.1c-2.7-2.1-4-4.8-4-8.2v-39.8
		c0-4.3,1.2-7.5,3.5-9.5s9.2-4.6,20.6-7.6c5.1-1.4,9.4-2.8,12.8-4.2V59.1c0-3.2-1-5.6-3.1-7.4c-2.1-1.8-4.8-2.6-8.1-2.6
		C232.8,49.1,227.1,52.2,223.3,58.6z M251.8,92.7c-5.6,1.8-9.3,3.5-10.9,5.3c-1.6,1.8-2.4,4.6-2.4,8.4V151c0,1.5,0.3,2.6,1,3.3
		s1.5,1.1,2.4,1.1c1.4,0,3-1.2,4.7-3.6c3.4-4.4,5.1-9.8,5.1-16L251.8,92.7L251.8,92.7z"/>
	<path class="st0" d="M320.2,1.9V56c3.6-3.9,6.8-6.5,9.6-7.9c2.8-1.4,6.1-2.1,9.9-2.1c5.9,0,10.1,1.2,12.5,3.7
		c3.5,3.3,5.3,8.5,5.3,15.5v92.5h4.8c0.9,0.5,1.3,0.9,1.3,1.4s-0.4,0.9-1.3,1.4h-31.5c-0.6-0.4-0.9-0.9-0.9-1.4s0.3-0.9,0.9-1.4h3
		v-98c0-2.5-0.4-4.3-1.2-5.3c-0.7-0.7-1.7-1.1-2.9-1.1c-2,0-4,1-5.7,3c-2.6,3-3.9,6.9-3.9,11.9v89.5h3.6c0.9,0.5,1.3,0.9,1.3,1.4
		s-0.4,0.9-1.3,1.4h-32.6l-0.7-0.3l-0.4-1.1c0-0.5,0.3-0.9,1.1-1.4h5.9V4.7h-5.9c-0.9-0.4-1.3-0.9-1.3-1.3c0-0.5,0.4-1,1.3-1.4
		L320.2,1.9L320.2,1.9z"/>
	<path class="st0" d="M378.7,58.6c1.2-0.4,2.4-0.6,3.6-0.8c1.1-0.2,2.2-0.3,3.2-0.3c3.5,0,6.5,1,8.9,3.1c2.4,2,3.6,4.7,3.6,8
		c0,3.4-1.2,6.1-3.7,8.1s-5.8,3.1-9.9,3.1s-7.4-1-9.8-3.1s-3.6-5.1-3.6-9.2c0-6,2.9-11.1,8.6-15.2s13.8-6.1,24.4-6.1
		c9.5,0,16.3,1.4,20.5,4.3c4.2,2.8,6.3,6.5,6.3,10.9v91.1c0,1.1,0.3,1.9,1,2.6c0.7,0.7,1.4,1,2.2,1c2.2,0,4.4-1.9,6.7-5.6
		c0.6-1.1,1.2-1.7,1.8-1.7l1.6,1.2c0,2.5-2,5.1-5.9,7.8c-4,2.7-8.7,4.1-14.2,4.1c-4.7,0-8.4-0.9-11-2.6c-2.6-1.8-4.5-4.9-5.9-9.3
		c-4,4.8-7.6,8-10.6,9.5s-6.6,2.4-10.7,2.4c-5,0-8.9-1-11.5-3.1c-2.7-2.1-4-4.8-4-8.2v-39.8c0-4.3,1.2-7.5,3.5-9.5s9.2-4.6,20.6-7.6
		c5.1-1.4,9.4-2.8,12.8-4.2V59.1c0-3.2-1-5.6-3.1-7.4c-2.1-1.8-4.8-2.6-8.1-2.6C388.3,49.1,382.5,52.2,378.7,58.6z M407.2,92.7
		c-5.6,1.8-9.3,3.5-10.9,5.3s-2.4,4.6-2.4,8.4V151c0,1.5,0.3,2.6,1,3.3s1.5,1.1,2.4,1.1c1.4,0,3-1.2,4.7-3.6c3.4-4.4,5.1-9.8,5.1-16
		L407.2,92.7L407.2,92.7z"/>
	<path class="st0" d="M454.5,50.1h-6.2c-0.8,0-1.4-0.1-1.8-0.4c-0.4-0.3-0.7-0.6-0.7-1.1s0.4-1,1.2-1.6c7.4-4.6,12.8-9.1,16.2-13.7
		c3.4-4.5,6.3-9.8,8.9-15.9c1.9-4.4,2.8-7.4,2.9-9.1l0.3-4.9c0.3-0.4,0.7-0.5,1.2-0.5s0.9,0.1,1.3,0.3c0.3,0.2,0.5,0.5,0.5,0.8v43.1
		h19.5c0.7,0,1.2,0.1,1.6,0.4c0.4,0.3,0.6,0.6,0.6,0.9c0,0.4-0.2,0.7-0.5,0.9c-0.4,0.3-1,0.4-1.7,0.4h-19.5v98.2
		c0,3,0.5,5.1,1.6,6.2c0.7,0.8,1.7,1.3,3.1,1.3c3,0,5.6-1.4,7.8-4.1c3.4-4.1,5.1-10.3,5.1-18.8v-15.4c0-1,0.3-1.8,0.8-2.3
		c0.3-0.4,0.8-0.5,1.3-0.5s1,0.2,1.3,0.5c0.5,0.6,0.8,1.3,0.8,2.3v11.7c0,11.9-2.4,20.3-7.1,25.2s-10.6,7.4-17.6,7.4
		c-6.6,0-11.4-1.4-14.5-4.3c-4.2-3.9-6.3-9.3-6.3-16.5L454.5,50.1L454.5,50.1z"/>
</g>
</svg>
