<?xml version="1.0" encoding="utf-8"?>
<!-- Generator: Adobe Illustrator 22.1.0, SVG Export Plug-In . SVG Version: 6.00 Build 0)  -->
<svg version="1.1" id="Layer_1" xmlns="http://www.w3.org/2000/svg" xmlns:xlink="http://www.w3.org/1999/xlink" x="0px" y="0px"
	 viewBox="0 0 500 120" style="enable-background:new 0 0 500 120;" xml:space="preserve">
<style type="text/css">
	.st0{fill:#BE2617;}
</style>
<g>
	<path class="st0" d="M166.7,85.8c-5.8,3-14.1,7.1-19.7,7.1c-10.5,0-12-10.9-12-17.5c0-14.6,4.9-32.4,8.8-46.6
		c2.1-7.8,2.3-8.4,2.3-9.6c0-0.5-0.3-1.7-1.2-1.7c-1.3,0-5.2,3.9-6.9,5.6C118.7,42.7,104.8,68,93.8,87.8c-4.7,1.8-8.4,3.2-10.5,4.4
		c-1.6,0.9-1.8,1-2.1,1c-0.4,0-0.6-0.4-0.6-0.6c0-0.1,11.1-29.5,12.2-32.1c2.5-6.3,14-33.9,16.3-39.5c0.9-2.3,2.5-6.2,2.5-8.4
		c0-2.2-1.6-4.3-3.4-4.3c-3.8,0-6.6,5.7-8.8,10.4c-3.2,6.7-17,36.5-20.1,42.3c-4.4,8.2-13.1,22.8-28.6,34.3
		c-13.9,10.1-28.5,11.9-33.4,11.9c-6.2,0-16.3-2.5-16.3-5.8c0-1,0.3-1.2,2.7-2.7l12.6-8L18,92c-0.9,0.5-1.2,1.4-1.2,1.8
		c0,2.8,9.5,3,12,3C56,96.8,62.1,84,72.6,58.3c12.8-31.3,15.5-38.2,27.7-47.6C105,7,114.8,0.1,120,0.1c2.6,0,5.3,2.5,5.3,6.5
		c0,5.4-1.3,8.2-9.3,25.9c-8.7,18.8-10.6,23.2-12.4,28.6c24.1-36.8,48.7-54.2,55.1-54.2c1.6,0,2.6,1.4,2.6,2.7c0,1-2.2,7.9-3.5,11.8
		c-6.3,20.2-9.6,39.9-9.6,47.6c0,7.1,3.5,16.1,11.8,16.1c1.3,0,3.5-0.3,6.1-1.4L166.7,85.8z"/>
	<path class="st0" d="M210.8,87.6c-8.4,2.6-18.1,5.7-26,5.7c-9.5,0-13.9-5.3-13.9-11.4c0-13.1,16.2-28.6,32.2-28.6
		c5.7,0,8.4,2.5,8.4,5.7c0,3.9-3.2,9.6-8.9,13.9c-5.7,4.1-12.2,7-17.9,9.3c5.3,5,14.5,5,16.2,5c1.3,0,4.7,0,9.8-1.3V87.6z M199.2,61
		c0-3-1.6-4.4-3.6-4.4c-6.3,0-12.3,10.6-12.3,19.8c0,1.9,0.3,3,0.6,4.1C193.2,76.6,199.2,67.2,199.2,61z"/>
	<path class="st0" d="M235.2,15.4c6.3,0.4,18.5,6.5,18.5,31.2c0,28.4-17.9,46.7-30.6,46.7c-7.5,0-9.8-5-9.8-10.5
		c0-10.9,8.3-18.8,10.6-20.8c5-4.4,10.5-6.7,19.8-9.3c-0.6-7.4-2.8-28.6-16.7-28.6c-3.1,0-5.6,1.2-9.2,2.8l-1.2-1.8L235.2,15.4z
		 M232.5,61.4c-3,3.5-6.3,10.1-6.3,16.7c0,4.3,1.6,9.5,5.6,9.5c10.7,0,12.4-29.8,12-32.9C240.7,55.5,236.2,57,232.5,61.4z"/>
	<path class="st0" d="M294.9,87.6c-8.4,2.6-18.1,5.7-26,5.7c-9.5,0-13.9-5.3-13.9-11.4c0-13.1,16.2-28.6,32.2-28.6
		c5.7,0,8.4,2.5,8.4,5.7c0,3.9-3.2,9.6-8.9,13.9c-5.7,4.1-12.2,7-17.9,9.3c5.3,5,14.5,5,16.2,5c1.3,0,4.7,0,9.8-1.3V87.6z M283.2,61
		c0-3-1.6-4.4-3.6-4.4c-6.3,0-12.3,10.6-12.3,19.8c0,1.9,0.3,3,0.6,4.1C277.3,76.6,283.2,67.2,283.2,61z"/>
	<path class="st0" d="M345,87.5c-3.8,1.4-16.3,5.6-20.7,5.6c-3.6,0-5.4-2.7-5.4-5.8c0-1.3,0.4-2.7,1.3-4.8l6.7-15.5
		c0.4-0.8,0.9-2.1,0.9-3.1c0-1.3-0.9-2.6-3.2-2.6c-1.2,0-5,0-10.9,9.8c-3.2,5.3-5.6,11.5-7,15.9c-0.9,2.5-0.9,2.7-2.5,3.2
		c-3.1,1-8.9,3-9.6,3c-0.4,0-0.5-0.3-0.5-0.5c0-0.4,0.5-1.9,0.8-2.5l11.5-33.5c0.1-0.4,1.9-0.6,3.2-0.9c2.1-0.5,5.2-1.4,7.8-2.2
		c0.1,0,0.8-0.3,0.9-0.3c0.3,0,0.4,0.3,0.4,0.4l-1.8,4.1c-0.3,0.5-2.8,6.7-4,10.4c8.3-10.6,18.4-14.9,23.6-14.9c1.9,0,5,0.8,5,4.3
		c0,0.6-0.1,1.4-0.5,2.2L332.4,80c-0.4,0.8-0.9,2.2-0.9,3.6c0,3.6,3.9,3.6,4.9,3.6c2.5,0,7.5-1,8.4-1.3L345,87.5z"/>
	<path class="st0" d="M375,86.7c-4.5,1.9-15,6.6-21.7,6.6c-3.1,0-5.7-2.6-5.7-5.7c0-2.7,0.9-6,1.8-8.5l8.3-21.5
		c0.1-0.5,6.1-1.7,7.1-1.9c0.9-0.3,5.4-1.9,5.7-1.9s0.5,0.3,0.5,0.6c0,0.8-2.1,5.3-3.4,8c-2.8,6.1-7.2,17-7.2,20.1
		c0,3.8,4,3.8,5.6,3.8c3.1,0,6.1-0.4,9.1-1.3V86.7z M369.6,31.6c3.6,0,6.5,3,6.5,6.3c0,3.6-3,6.5-6.5,6.5c-3.5,0-6.3-2.8-6.3-6.5
		C363.2,34.6,366.1,31.6,369.6,31.6z"/>
	<path class="st0" d="M414.5,97.1c-1.9,1.7-9.3,8-14.1,18.4c-0.6,1.3-0.9,1.4-3.9,2.3c-0.9,0.3-6.5,2.1-6.7,2.1
		c-0.1,0-0.3-0.3-0.3-0.5c0-0.5,0.5-2.1,1-3.8l13.6-37.9c-3.4,3.8-13.9,15.7-23.2,15.7c-2.3,0-4.5-1.8-4.5-4.5
		c0-1.4,0.3-2.6,1.6-5.6l10-25.9c0.1-0.5,0.3-0.9,1.8-1.3l9.1-2.5c0.9-0.3,0.9-0.3,1-0.3c0.1,0,0.4,0.1,0.4,0.4c0,1-11,26.3-11,30.7
		c0,0.9,0.3,2.5,2.1,2.5c2.5,0,10.7-6.5,17.2-23.3c0.4-1,2.6-6.9,2.8-7c0.5-0.3,10.9-3.1,11.3-3.1c0.1,0,0.3,0.3,0.3,0.4
		s-0.4,1.2-0.5,1.6l-16.8,46.1c1.8-1.6,5.7-4.4,8.5-5.8L414.5,97.1z M403.5,42.1c6.9-3.6,8.2-8.5,9.2-13.1c0.3-0.8,0.4-0.8,3.6-1.3
		c1.4-0.1,8.5-1.4,8.7-1.4c0.4,0,1.2,0.1,1.2,0.6c0,2.7-11.4,13.9-21.9,16.8L403.5,42.1z"/>
	<path class="st0" d="M466.1,87.6c-8.4,2.6-18.1,5.7-26,5.7c-9.5,0-13.9-5.3-13.9-11.4c0-13.1,16.2-28.6,32.2-28.6
		c5.7,0,8.4,2.5,8.4,5.7c0,3.9-3.2,9.6-8.9,13.9c-5.7,4.1-12.2,7-17.9,9.3c5.3,5,14.5,5,16.2,5c1.3,0,4.7,0,9.8-1.3V87.6z M454.5,61
		c0-3-1.6-4.4-3.6-4.4c-6.3,0-12.3,10.6-12.3,19.8c0,1.9,0.3,3,0.6,4.1C448.5,76.6,454.5,67.2,454.5,61z"/>
	<path class="st0" d="M472.8,60.3c-0.8,0-0.8-0.5-0.8-0.6c0-0.1,2.7-5,3.5-5h5.7L487,39l10.2-2.3c1.2-0.3,1.4,0.5,1.2,1.3l-6.5,16.7
		h6.5c0.3,0,0.5,0.1,0.5,0.4c0,0.1-2.3,5.3-3.4,5.3h-5.7l-5.7,16.4c-0.5,1.4-1.3,3.6-1.3,5.2c0,5.3,7.8,5.3,8.9,5.3
		c1.2,0,4.5-0.3,7.1-0.6l0.1,1.6c-7.9,2.5-16.4,5.2-21.6,5.2c-3.6,0-6.3-2.1-6.3-6.5c0-6,5.4-20.3,8-26.5H472.8z"/>
</g>
</svg>
